<svg width="27" height="23" viewBox="0 0 27 23" fill="none" xmlns="http://www.w3.org/2000/svg">
<path d="M5.768 22.252C4.592 22.252 3.572 22.072 2.708 21.712C1.844 21.352 1.184 20.716 0.728 19.804C0.296 18.892 0.08 17.608 0.08 15.952V14.728C0.656 14.728 1.244 14.728 1.844 14.728C2.444 14.728 3.032 14.728 3.608 14.728V16.24C3.608 17.248 3.704 18.028 3.896 18.58C4.088 19.132 4.352 19.516 4.688 19.732C5.024 19.924 5.408 20.02 5.84 20.02C6.536 20.02 7.088 19.792 7.496 19.336C7.928 18.856 8.144 17.968 8.144 16.672C8.144 15.712 8 14.992 7.712 14.512C7.424 14.032 6.968 13.648 6.344 13.36C5.744 13.048 4.964 12.7 4.004 12.316C3.212 11.956 2.528 11.536 1.952 11.056C1.376 10.576 0.944 9.964 0.656 9.22C0.368 8.476 0.224 7.552 0.224 6.448C0.224 5.104 0.392 4.012 0.728 3.172C1.088 2.308 1.688 1.684 2.528 1.3C3.368 0.891999 4.496 0.688 5.912 0.688C7.736 0.688 9.128 1.108 10.088 1.948C11.048 2.764 11.528 3.964 11.528 5.548V8.032C10.976 8.032 10.412 8.032 9.836 8.032C9.284 8.032 8.72 8.032 8.144 8.032V6.556C8.144 5.452 7.964 4.66 7.604 4.18C7.268 3.676 6.716 3.424 5.948 3.424C5.156 3.424 4.58 3.664 4.22 4.144C3.884 4.6 3.716 5.332 3.716 6.34C3.716 7.204 3.884 7.876 4.22 8.356C4.556 8.812 4.988 9.172 5.516 9.436C6.068 9.7 6.632 9.94 7.208 10.156C8.288 10.564 9.164 10.984 9.836 11.416C10.508 11.848 11 12.424 11.312 13.144C11.624 13.864 11.78 14.884 11.78 16.204C11.78 17.716 11.528 18.916 11.024 19.804C10.544 20.668 9.848 21.292 8.936 21.676C8.048 22.06 6.992 22.252 5.768 22.252ZM19.7644 22.396C18.9484 22.396 18.1804 22.264 17.4604 22C16.7404 21.76 16.1524 21.268 15.6964 20.524C15.2644 19.756 15.0484 18.616 15.0484 17.104V5.224C15.0484 3.928 15.2884 2.944 15.7684 2.272C16.2484 1.576 16.9204 1.108 17.7844 0.868C18.6484 0.603999 19.6444 0.471998 20.7724 0.471998C21.9004 0.471998 22.8964 0.603999 23.7604 0.868C24.6244 1.132 25.2964 1.612 25.7764 2.308C26.2804 2.98 26.5324 3.952 26.5324 5.224V8.104H23.1844V5.08C23.1844 4.36 23.0764 3.82 22.8604 3.46C22.6684 3.1 22.3924 2.86 22.0324 2.74C21.6964 2.62 21.2884 2.56 20.8084 2.56C20.3764 2.56 19.9804 2.62 19.6204 2.74C19.2604 2.86 18.9724 3.1 18.7564 3.46C18.5644 3.82 18.4684 4.36 18.4684 5.08V17.86C18.4684 18.58 18.5644 19.12 18.7564 19.48C18.9724 19.84 19.2604 20.08 19.6204 20.2C19.9804 20.32 20.3764 20.38 20.8084 20.38C21.5044 20.38 22.0684 20.176 22.5004 19.768C22.9564 19.336 23.1844 18.7 23.1844 17.86V13.54H21.0604V11.56H26.5324V22H23.9404L23.7604 20.2C23.7124 20.296 23.6524 20.404 23.5804 20.524C23.5084 20.62 23.4484 20.704 23.4004 20.776C23.1124 21.208 22.6804 21.592 22.1044 21.928C21.5524 22.24 20.7724 22.396 19.7644 22.396Z" fill="#D10A42"/>
<path d="M5.768 22.252C4.592 22.252 3.572 22.072 2.708 21.712C1.844 21.352 1.184 20.716 0.728 19.804C0.296 18.892 0.08 17.608 0.08 15.952V14.728C0.656 14.728 1.244 14.728 1.844 14.728C2.444 14.728 3.032 14.728 3.608 14.728V16.24C3.608 17.248 3.704 18.028 3.896 18.58C4.088 19.132 4.352 19.516 4.688 19.732C5.024 19.924 5.408 20.02 5.84 20.02C6.536 20.02 7.088 19.792 7.496 19.336C7.928 18.856 8.144 17.968 8.144 16.672C8.144 15.712 8 14.992 7.712 14.512C7.424 14.032 6.968 13.648 6.344 13.36C5.744 13.048 4.964 12.7 4.004 12.316C3.212 11.956 2.528 11.536 1.952 11.056C1.376 10.576 0.944 9.964 0.656 9.22C0.368 8.476 0.224 7.552 0.224 6.448C0.224 5.104 0.392 4.012 0.728 3.172C1.088 2.308 1.688 1.684 2.528 1.3C3.368 0.891999 4.496 0.688 5.912 0.688C7.736 0.688 9.128 1.108 10.088 1.948C11.048 2.764 11.528 3.964 11.528 5.548V8.032C10.976 8.032 10.412 8.032 9.836 8.032C9.284 8.032 8.72 8.032 8.144 8.032V6.556C8.144 5.452 7.964 4.66 7.604 4.18C7.268 3.676 6.716 3.424 5.948 3.424C5.156 3.424 4.58 3.664 4.22 4.144C3.884 4.6 3.716 5.332 3.716 6.34C3.716 7.204 3.884 7.876 4.22 8.356C4.556 8.812 4.988 9.172 5.516 9.436C6.068 9.7 6.632 9.94 7.208 10.156C8.288 10.564 9.164 10.984 9.836 11.416C10.508 11.848 11 12.424 11.312 13.144C11.624 13.864 11.78 14.884 11.78 16.204C11.78 17.716 11.528 18.916 11.024 19.804C10.544 20.668 9.848 21.292 8.936 21.676C8.048 22.06 6.992 22.252 5.768 22.252ZM19.7644 22.396C18.9484 22.396 18.1804 22.264 17.4604 22C16.7404 21.76 16.1524 21.268 15.6964 20.524C15.2644 19.756 15.0484 18.616 15.0484 17.104V5.224C15.0484 3.928 15.2884 2.944 15.7684 2.272C16.2484 1.576 16.9204 1.108 17.7844 0.868C18.6484 0.603999 19.6444 0.471998 20.7724 0.471998C21.9004 0.471998 22.8964 0.603999 23.7604 0.868C24.6244 1.132 25.2964 1.612 25.7764 2.308C26.2804 2.98 26.5324 3.952 26.5324 5.224V8.104H23.1844V5.08C23.1844 4.36 23.0764 3.82 22.8604 3.46C22.6684 3.1 22.3924 2.86 22.0324 2.74C21.6964 2.62 21.2884 2.56 20.8084 2.56C20.3764 2.56 19.9804 2.62 19.6204 2.74C19.2604 2.86 18.9724 3.1 18.7564 3.46C18.5644 3.82 18.4684 4.36 18.4684 5.08V17.86C18.4684 18.58 18.5644 19.12 18.7564 19.48C18.9724 19.84 19.2604 20.08 19.6204 20.2C19.9804 20.32 20.3764 20.38 20.8084 20.38C21.5044 20.38 22.0684 20.176 22.5004 19.768C22.9564 19.336 23.1844 18.7 23.1844 17.86V13.54H21.0604V11.56H26.5324V22H23.9404L23.7604 20.2C23.7124 20.296 23.6524 20.404 23.5804 20.524C23.5084 20.62 23.4484 20.704 23.4004 20.776C23.1124 21.208 22.6804 21.592 22.1044 21.928C21.5524 22.24 20.7724 22.396 19.7644 22.396Z" fill="url(#paint0_linear_8333_27)"/>
<defs>
<linearGradient id="paint0_linear_8333_27" x1="31" y1="29.5" x2="-1" y2="-2.5" gradientUnits="userSpaceOnUse">
<stop stop-color="#0041CA"/>
<stop offset="1" stop-color="#0041CA" stop-opacity="0"/>
</linearGradient>
</defs>
</svg>
